<?xml version="1.0" encoding="utf-8"?>
<!-- Generator: Adobe Illustrator 18.1.1, SVG Export Plug-In . SVG Version: 6.00 Build 0)  -->
<svg version="1.1" id="Layer_1" xmlns="http://www.w3.org/2000/svg" xmlns:xlink="http://www.w3.org/1999/xlink" x="0px" y="0px"
	 viewBox="0 0 612 792" enable-background="new 0 0 612 792" xml:space="preserve">
<title>Cities: Skylines II horizontal logo</title>
<g id="logo">
	<path fill="#FFFFFF" d="M311.5,209.5c18.1-8.6,41,8,38.5,27.9c-0.2,19.7-24.5,32.7-41.2,22.6C288.4,250.5,290.2,216.8,311.5,209.5z
		"/>
	<path fill="#FFFFFF" d="M-144,209.3c16.4-0.1,32.7,0,49.1-0.1c-0.2,53.1,0.4,106.2-0.3,159.3c22.1-25.5,42.3-52.9,63.7-79.2
		c19.6,0,39.3,0,58.9,0C2.7,319-21.9,348.7-46.1,378.7c26.3,30,50.9,61.5,76.9,91.8c-20.2-0.3-40.3,0.1-60.5-0.2
		c-22.8-25.4-42.8-53.6-65.6-79c0.7,26.4,0.2,52.8,0.3,79.2c-16.4-0.2-32.8,0.1-49.2-0.2C-143.7,383.3-143.8,296.3-144,209.3z"/>
	<path fill="#FFFFFF" d="M222.9,209.3c16.3-0.1,32.5,0,48.8,0c0,87,0,174,0,261.1c-16.3,0-32.6,0-48.8,0
		C223,383.3,222.9,296.3,222.9,209.3z"/>
	<path fill="#FFFFFF" d="M313,297.6c11.2-4.2,22.6-7.9,33.9-11.9c-0.2,61.5-0.4,123.1,0.1,184.6c-16.4,0.2-32.9,0.1-49.3,0.1
		c0.3-50,0-100,0.2-150C297.6,310.6,303.6,300.8,313,297.6z"/>
	<path fill="#FFFFFF" d="M-322.6,320.1c-0.1-16.6,14.7-31.3,31.4-30.7c39.6,0.2,79.2-0.5,118.7,0.3c-0.8,13.8-0.3,27.6-0.2,41.4
		c-33.7,0.2-67.4,0-101.1,0.1c0,9.3,0,18.5,0,27.8c24.8,0.1,49.7-0.2,74.5,0.1c15.8,0.2,29.9,14.1,30.1,30c0.1,16.8,0,33.7,0,50.6
		c0.1,16.1-14.1,31-30.4,30.7c-41,0.2-81.9-0.3-122.9,0.2c-0.5-13.9,0.1-27.9-0.3-41.8c34.8-0.2,69.7,0,104.6-0.1
		c-0.2-9.2-0.2-18.4,0-27.7c-25.2-0.3-50.4,0.2-75.6-0.2c-15.5-0.7-28.6-14.6-28.8-30C-322.7,353.9-322.6,337-322.6,320.1z"/>
	<path fill="#FFFFFF" d="M149.8,289.4c17.5-0.2,35-0.1,52.6,0c-33.4,78.2-66.5,156.5-99.3,234.9c-4,10.2-13.5,18.2-24.6,19.2
		c-11.6,0.8-23.2,0.1-34.9,0.3c11.5-24.5,21.8-49.5,32.9-74.1c-19.5-45-37.9-90.5-57.4-135.6c11.8-14.4,23.8-28.6,35.4-43.2
		c16,39.6,32.2,79.2,48,119c5.2-8.9,7.7-19.4,11.9-28.9C126.1,350.5,137.9,319.9,149.8,289.4z"/>
	<path fill="#FFFFFF" d="M376.1,289.4c45.5,0,91-0.1,136.5,0c16.5-0.3,31.2,14.3,31.1,30.7c0,50.1,0.2,100.3-0.1,150.5
		c-16.3-0.5-32.5,0-48.8-0.3c0.6-45.7,0-91.4,0.3-137.1c-23.3,0-46.7,0-70,0c0.1,45.7-0.2,91.4,0.2,137.1
		c-16.4,0.2-32.8,0.1-49.2,0.1C376.2,410,376.3,349.7,376.1,289.4z"/>
</g>
<g>
	<path fill="#FFFFFF" d="M563.4,470.5l55.1-90.8l-52.8-90.4h58.5l30.6,61.6l31-61.6h58.8l-53.5,91.7l55.7,89.4h-58.5L654,413.3
		l-31.8,57.2H563.4z"/>
</g>
</svg>
